<svg width="30" height="22" viewBox="0 0 30 22" fill="none" xmlns="http://www.w3.org/2000/svg">
<path d="M7.40852 6.91783L12.5855 11.9054L11.8599 16.8507C8.04667 16.4209 5.7747 16.0958 5.04401 15.8755C4.31332 15.6552 3.64858 15.3084 3.0498 14.835L1.44898 13.2823C-1.08714 10.6604 0.290234 7.76333 1.20346 6.95743C2.22613 5.85073 4.87698 4.74873 7.40852 6.91783Z" fill="#47AE7D"/>
<path d="M27.8023 7.00628L15.0198 19.7888C13.1972 21.5822 10.1886 21.739 8.18964 19.7572L5.38582 17.0388L3.03955 14.824C5.06691 15.7317 6.83283 15.5348 8.33733 14.2332C9.18611 13.6143 13.683 9.31578 21.8279 1.33778C23.9642 -0.819938 26.7017 0.0155822 27.8588 1.17498C29.0755 2.26218 29.9193 4.96528 27.8023 7.00628Z" fill="#5ED69D"/>
</svg>
