<svg width="11" height="14" viewBox="0 0 11 14" fill="none" xmlns="http://www.w3.org/2000/svg">
<path d="M9.85166 5.50122H9.59462V4.29819C9.59462 2.07308 7.82885 0.21432 5.62184 0.174641C5.56154 0.173557 5.44104 0.173557 5.38076 0.174641C3.17371 0.21432 1.40796 2.07308 1.40796 4.29819V5.50122H1.15089C0.754759 5.50122 0.431641 5.90999 0.431641 6.41483V12.4488C0.431641 12.953 0.754759 13.3656 1.15092 13.3656H9.85166C10.2478 13.3656 10.5709 12.953 10.5709 12.4488V6.41483C10.5709 5.91002 10.2478 5.50122 9.85166 5.50122ZM6.31643 9.42567V11.2489C6.31643 11.4577 6.14165 11.6344 5.93271 11.6344H5.06992C4.86096 11.6344 4.68617 11.4577 4.68617 11.2489V9.42567C4.48353 9.2262 4.36555 8.95037 4.36555 8.64525C4.36555 8.06704 4.8125 7.57019 5.38079 7.54724C5.44101 7.5448 5.56165 7.5448 5.62187 7.54724C6.19016 7.57019 6.63711 8.06704 6.63711 8.64525C6.63706 8.95037 6.51908 9.2262 6.31643 9.42567ZM7.90042 5.50122H5.62184H5.38076H3.10218V4.29819C3.10218 2.97273 4.17935 1.87677 5.50129 1.87677C6.82323 1.87677 7.90045 2.97273 7.90045 4.29819V5.50122H7.90042Z" fill="#A9A9A9"/>
</svg>
