<svg width="148" height="40" viewBox="0 0 148 40" fill="none" xmlns="http://www.w3.org/2000/svg">
<path d="M7.40852 17.5467L12.5855 22.5343L11.8599 27.4796C8.04667 27.0498 5.7747 26.7247 5.04401 26.5044C4.31332 26.2841 3.64858 25.9373 3.0498 25.4639L1.44898 23.9112C-1.08714 21.2893 0.290234 18.3922 1.20346 17.5863C2.22613 16.4796 4.87698 15.3776 7.40852 17.5467Z" fill="#47AE7D"/>
<path d="M27.8023 17.6352L15.0198 30.4177C13.1972 32.2111 10.1886 32.3679 8.18964 30.3861L5.38582 27.6677L3.03955 25.4529C5.06691 26.3606 6.83283 26.1637 8.33733 24.8621C9.18611 24.2432 13.683 19.9447 21.8279 11.9667C23.9642 9.80897 26.7017 10.6445 27.8588 11.8039C29.0755 12.8911 29.9193 15.5942 27.8023 17.6352Z" fill="#5ED69D"/>
<path d="M93.6077 23.3116C93.6077 26.4132 95.7808 28.6708 98.8824 28.6708C100.317 28.6708 101.351 28.2277 102.111 27.5736C102.322 27.4048 102.469 27.1094 102.469 26.8141C102.469 26.2655 102.026 25.8224 101.456 25.8224C101.224 25.8224 100.992 25.9068 100.823 26.0545C100.296 26.4976 99.7052 26.7086 98.9879 26.7086C97.1312 26.7086 95.9074 25.2949 95.9074 23.3116C95.9074 21.3283 97.1312 19.9358 98.9879 19.9358C99.7052 19.9358 100.296 20.1468 100.823 20.5899C100.992 20.7376 101.224 20.822 101.478 20.822C102.026 20.822 102.469 20.3789 102.469 19.8303C102.469 19.5349 102.322 19.2396 102.111 19.0708C101.351 18.4167 100.317 17.9736 98.8824 17.9736C95.7808 17.9736 93.6077 20.2312 93.6077 23.3116ZM112.723 28.5442C113.335 28.5442 113.842 28.0378 113.842 27.4259V21.2018C113.842 19.113 112.744 17.9736 110.55 17.9736C108.947 17.9736 107.617 18.8176 106.942 19.6193V15.3363C106.942 14.7244 106.436 14.218 105.845 14.218C105.233 14.218 104.727 14.7244 104.727 15.3363V27.4259C104.727 28.0378 105.233 28.5442 105.845 28.5442C106.436 28.5442 106.942 28.0378 106.942 27.4259V21.3072C107.47 20.611 108.44 19.9358 109.558 19.9358C110.803 19.9358 111.626 20.4211 111.626 22.0035V27.4259C111.626 28.0378 112.132 28.5442 112.723 28.5442ZM116.078 23.3116C116.078 20.3578 118.23 17.9736 121.247 17.9736C124.307 17.9736 126.269 20.3156 126.269 23.0163C126.269 23.6703 125.805 24.0501 124.961 24.0501H118.399C118.568 25.5903 119.728 26.8563 121.648 26.8563C122.387 26.8563 123.252 26.6242 123.969 26.1811C124.096 26.0967 124.264 26.0545 124.454 26.0545C124.94 26.0545 125.34 26.4554 125.34 26.9407C125.34 27.2571 125.172 27.5103 124.94 27.6791C123.927 28.3543 122.703 28.6708 121.416 28.6708C118.357 28.6708 116.078 26.5398 116.078 23.3116ZM121.247 19.7881C119.348 19.7881 118.483 21.244 118.378 22.4888H124.117C124.074 21.2861 123.252 19.7881 121.247 19.7881ZM127.83 23.3116C127.83 26.4132 130.003 28.6708 133.105 28.6708C134.54 28.6708 135.573 28.2277 136.333 27.5736C136.544 27.4048 136.692 27.1094 136.692 26.8141C136.692 26.2655 136.249 25.8224 135.679 25.8224C135.447 25.8224 135.215 25.9068 135.046 26.0545C134.518 26.4976 133.928 26.7086 133.21 26.7086C131.354 26.7086 130.13 25.2949 130.13 23.3116C130.13 21.3283 131.354 19.9358 133.21 19.9358C133.928 19.9358 134.518 20.1468 135.046 20.5899C135.215 20.7376 135.447 20.822 135.7 20.822C136.249 20.822 136.692 20.3789 136.692 19.8303C136.692 19.5349 136.544 19.2396 136.333 19.0708C135.573 18.4167 134.54 17.9736 133.105 17.9736C130.003 17.9736 127.83 20.2312 127.83 23.3116ZM147.6 26.7086L144.245 22.9108L147.347 19.8303C147.536 19.6404 147.642 19.3661 147.642 19.1341C147.642 18.5855 147.199 18.1002 146.65 18.1002C146.376 18.1002 146.123 18.1846 145.933 18.3745L141.165 23.164V15.3363C141.165 14.7244 140.658 14.218 140.067 14.218C139.456 14.218 138.949 14.7244 138.949 15.3363V27.4259C138.949 28.0378 139.456 28.5442 140.046 28.5442C140.658 28.5442 141.165 28.0378 141.165 27.4259V25.6114L142.62 24.24L145.933 28.1855C146.144 28.4387 146.439 28.5442 146.777 28.5442C147.389 28.5442 147.853 28.0589 147.853 27.4259C147.853 27.1938 147.769 26.8985 147.6 26.7086Z" fill="#111111"/>
<path d="M47.8862 17.9735C46.3671 17.9735 45.0168 18.923 44.426 19.8513C44.0884 18.7331 43.1601 17.9735 41.6409 17.9735C40.1007 17.9735 38.7504 19.0074 38.3284 19.6192V19.2183C38.3284 18.6065 37.8221 18.1001 37.2102 18.1001C36.6194 18.1001 36.113 18.6065 36.113 19.2183V27.4258C36.113 28.0377 36.6194 28.5441 37.2313 28.5441C37.8221 28.5441 38.3284 28.0377 38.3284 27.4258V21.3071C38.7926 20.632 39.6999 19.9357 40.6704 19.9357C41.873 19.9357 42.3583 20.6742 42.3583 21.7713V27.4258C42.3583 28.0377 42.8647 28.5441 43.4555 28.5441C44.0673 28.5441 44.5737 28.0377 44.5737 27.4258V21.286C45.0168 20.632 45.9451 19.9357 46.9368 19.9357C48.1183 19.9357 48.6036 20.6742 48.6036 21.7713V27.4258C48.6036 28.0377 49.11 28.5441 49.7007 28.5441C50.3126 28.5441 50.819 28.0377 50.819 27.4258V21.0539C50.819 18.9863 49.764 17.9735 47.8862 17.9735ZM57.8871 17.9735C60.1447 17.9735 62.128 18.923 62.128 21.6658V27.4258C62.128 28.0377 61.6216 28.5441 61.0097 28.5441C60.419 28.5441 59.9126 28.0377 59.9126 27.4258V27.3203C59.153 28.1854 57.9715 28.6706 56.6212 28.6706C54.9544 28.6706 53.0766 27.5524 53.0766 25.2948C53.0766 22.9528 54.9544 21.9823 56.6212 21.9823C57.9926 21.9823 59.1741 22.4254 59.9126 23.2904V21.7713C59.9126 20.5898 58.942 19.8724 57.5284 19.8724C56.6634 19.8724 55.9038 20.1045 55.1442 20.632C55.0177 20.7164 54.8278 20.7797 54.6379 20.7797C54.1526 20.7797 53.7517 20.3788 53.7517 19.8935C53.7517 19.5981 53.9205 19.3238 54.1315 19.1761C55.2497 18.3533 56.5157 17.9735 57.8871 17.9735ZM57.4862 23.5014C56.2414 23.5014 55.313 24.2188 55.313 25.337C55.313 26.4342 56.2414 27.1515 57.4862 27.1515C58.4568 27.1515 59.4062 26.7928 59.9126 26.0966V24.5564C59.4062 23.8601 58.4568 23.5014 57.4862 23.5014ZM66.0946 16.2434C65.3561 16.2434 64.7231 15.6315 64.7231 14.872C64.7231 14.1124 65.3561 13.5005 66.0946 13.5005C66.8541 13.5005 67.466 14.1124 67.466 14.872C67.466 15.6315 66.8541 16.2434 66.0946 16.2434ZM66.0946 28.5441C65.5038 28.5441 64.9974 28.0377 64.9974 27.4258V19.2183C64.9974 18.6065 65.5038 18.1001 66.1157 18.1001C66.7064 18.1001 67.2128 18.6065 67.2128 19.2183V27.4258C67.2128 28.0377 66.7064 28.5441 66.0946 28.5441ZM71.2005 28.5441C70.5886 28.5441 70.0823 28.0377 70.0823 27.4258V15.3361C70.0823 14.7243 70.5886 14.2179 71.2005 14.2179C71.7913 14.2179 72.2977 14.7243 72.2977 15.3361V27.4258C72.2977 28.0377 71.7913 28.5441 71.2005 28.5441ZM79.7034 17.9735C82.7627 17.9735 84.7249 20.3155 84.7249 23.0161C84.7249 23.6702 84.2607 24.05 83.4168 24.05H76.855C77.0238 25.5902 78.1842 26.8561 80.1042 26.8561C80.8427 26.8561 81.7078 26.6241 82.4251 26.181C82.5517 26.0966 82.7205 26.0544 82.9104 26.0544C83.3957 26.0544 83.7966 26.4553 83.7966 26.9405C83.7966 27.257 83.6278 27.5102 83.3957 27.679C82.3829 28.3542 81.1592 28.6706 79.8722 28.6706C76.8128 28.6706 74.5341 26.5397 74.5341 23.3115C74.5341 20.3577 76.6862 17.9735 79.7034 17.9735ZM79.7034 19.788C77.8045 19.788 76.9394 21.2438 76.8339 22.4887H82.5728C82.5306 21.286 81.7078 19.788 79.7034 19.788ZM91.6875 18.0579C92.3205 18.0579 92.5948 18.5432 92.5948 19.0917C92.5948 19.5981 92.215 20.0412 91.4555 20.1467C90.6959 20.2522 89.5777 20.7586 89.1346 21.4759V27.4258C89.1346 28.0377 88.6282 28.5441 88.0374 28.5441C87.4256 28.5441 86.9192 28.0377 86.9192 27.4258V19.2183C86.9192 18.6065 87.4256 18.1001 88.0163 18.1001C88.6282 18.1001 89.1346 18.6065 89.1346 19.2183V19.7247C89.6832 19.0074 90.4427 18.3955 91.0968 18.1845C91.35 18.1001 91.4977 18.0579 91.6875 18.0579Z" fill="#A8A8A8"/>
</svg>
