<svg width="123" height="34" viewBox="0 0 123 34" fill="none" xmlns="http://www.w3.org/2000/svg">
<g clip-path="url(#clip0)">
<path d="M6.34736 14.9886L10.6341 19.1186L10.0333 23.2134C6.87577 22.8576 4.99449 22.5884 4.38946 22.4059C3.78442 22.2235 3.23399 21.9364 2.73818 21.5444L1.41264 20.2587C-0.687361 18.0876 0.453154 15.6887 1.20934 15.0214C2.05615 14.105 4.25115 13.1925 6.34736 14.9886Z" fill="#7B7B7B"/>
<path d="M23.2341 15.062L12.6498 25.6464C11.1406 27.1314 8.64935 27.2612 6.99414 25.6202L4.67247 23.3693L2.72968 21.5354C4.4084 22.287 5.87065 22.1239 7.11643 21.0462C7.81925 20.5337 11.5428 16.9744 18.2871 10.3683C20.0561 8.58162 22.3228 9.27346 23.2809 10.2335C24.2884 11.1337 24.9871 13.372 23.2341 15.062Z" fill="#B3B3B3"/>
<path d="M77.7234 19.7622C77.7234 22.3304 79.5229 24.1998 82.0911 24.1998C83.279 24.1998 84.1352 23.8329 84.7645 23.2913C84.9392 23.1515 85.0609 22.9069 85.0609 22.6624C85.0609 22.2081 84.6941 21.8412 84.2221 21.8412C84.03 21.8412 83.8379 21.9111 83.698 22.0334C83.2616 22.4003 82.7724 22.575 82.1785 22.575C80.641 22.575 79.6277 21.4044 79.6277 19.7622C79.6277 18.1199 80.641 16.9669 82.1785 16.9669C82.7724 16.9669 83.2616 17.1416 83.698 17.5085C83.8379 17.6308 84.03 17.7007 84.2403 17.7007C84.6941 17.7007 85.0609 17.3338 85.0609 16.8795C85.0609 16.6349 84.9392 16.3904 84.7645 16.2507C84.1352 15.709 83.279 15.3421 82.0911 15.3421C79.5229 15.3421 77.7234 17.2115 77.7234 19.7622ZM93.5516 24.095C94.0584 24.095 94.4782 23.6757 94.4782 23.169V18.0152C94.4782 16.2856 93.569 15.3421 91.7523 15.3421C90.425 15.3421 89.3237 16.041 88.7647 16.7048V13.1584C88.7647 12.6517 88.3458 12.2324 87.8564 12.2324C87.3496 12.2324 86.9306 12.6517 86.9306 13.1584V23.169C86.9306 23.6757 87.3496 24.095 87.8564 24.095C88.3458 24.095 88.7647 23.6757 88.7647 23.169V18.1025C89.2019 17.526 90.0051 16.9669 90.9309 16.9669C91.9618 16.9669 92.6433 17.3688 92.6433 18.679V23.169C92.6433 23.6757 93.0623 24.095 93.5516 24.095ZM96.3297 19.7622C96.3297 17.3163 98.1116 15.3421 100.61 15.3421C103.144 15.3421 104.768 17.2814 104.768 19.5177C104.768 20.0592 104.384 20.3737 103.685 20.3737H98.2516C98.3915 21.649 99.352 22.6973 100.942 22.6973C101.554 22.6973 102.27 22.5051 102.864 22.1382C102.969 22.0684 103.108 22.0334 103.265 22.0334C103.668 22.0334 103.999 22.3654 103.999 22.7672C103.999 23.0292 103.86 23.2389 103.668 23.3786C102.829 23.9377 101.815 24.1998 100.75 24.1998C98.2168 24.1998 96.3297 22.4353 96.3297 19.7622ZM100.61 16.8446C99.0374 16.8446 98.3211 18.0501 98.2342 19.0809H102.986C102.951 18.085 102.27 16.8446 100.61 16.8446ZM106.061 19.7622C106.061 22.3304 107.86 24.1998 110.429 24.1998C111.617 24.1998 112.472 23.8329 113.102 23.2913C113.276 23.1515 113.399 22.9069 113.399 22.6624C113.399 22.2081 113.032 21.8412 112.56 21.8412C112.368 21.8412 112.176 21.9111 112.036 22.0334C111.599 22.4003 111.11 22.575 110.516 22.575C108.979 22.575 107.965 21.4044 107.965 19.7622C107.965 18.1199 108.979 16.9669 110.516 16.9669C111.11 16.9669 111.599 17.1416 112.036 17.5085C112.176 17.6308 112.368 17.7007 112.577 17.7007C113.032 17.7007 113.399 17.3338 113.399 16.8795C113.399 16.6349 113.276 16.3904 113.102 16.2507C112.472 15.709 111.617 15.3421 110.429 15.3421C107.86 15.3421 106.061 17.2115 106.061 19.7622ZM122.431 22.575L119.653 19.4303L122.222 16.8795C122.378 16.7223 122.466 16.4952 122.466 16.3031C122.466 15.8488 122.099 15.447 121.644 15.447C121.418 15.447 121.208 15.5169 121.051 15.6741L117.103 19.64V13.1584C117.103 12.6517 116.683 12.2324 116.193 12.2324C115.688 12.2324 115.268 12.6517 115.268 13.1584V23.169C115.268 23.6757 115.688 24.095 116.176 24.095C116.683 24.095 117.103 23.6757 117.103 23.169V21.6665L118.307 20.5309L121.051 23.798C121.225 24.0076 121.47 24.095 121.75 24.095C122.256 24.095 122.641 23.6931 122.641 23.169C122.641 22.9768 122.571 22.7323 122.431 22.575Z" fill="white"/>
<path d="M39.8644 15.3418C38.6066 15.3418 37.4885 16.128 36.9993 16.8967C36.7197 15.9708 35.951 15.3418 34.6931 15.3418C33.4177 15.3418 32.2996 16.1979 31.9502 16.7045V16.3725C31.9502 15.866 31.531 15.4466 31.0243 15.4466C30.5351 15.4466 30.1158 15.866 30.1158 16.3725V23.1687C30.1158 23.6753 30.5351 24.0947 31.0418 24.0947C31.531 24.0947 31.9502 23.6753 31.9502 23.1687V18.1022C32.3346 17.5431 33.0859 16.9666 33.8895 16.9666C34.8853 16.9666 35.2871 17.5781 35.2871 18.4865V23.1687C35.2871 23.6753 35.7064 24.0947 36.1956 24.0947C36.7022 24.0947 37.1216 23.6753 37.1216 23.1687V18.0847C37.4885 17.5431 38.2571 16.9666 39.0783 16.9666C40.0566 16.9666 40.4585 17.5781 40.4585 18.4865V23.1687C40.4585 23.6753 40.8778 24.0947 41.3669 24.0947C41.8736 24.0947 42.2929 23.6753 42.2929 23.1687V17.8925C42.2929 16.1804 41.4193 15.3418 39.8644 15.3418ZM48.1455 15.3418C50.0149 15.3418 51.6572 16.128 51.6572 18.3992V23.1687C51.6572 23.6753 51.2378 24.0947 50.7312 24.0947C50.242 24.0947 49.8227 23.6753 49.8227 23.1687V23.0813C49.1937 23.7976 48.2154 24.1994 47.0973 24.1994C45.7172 24.1994 44.1623 23.2735 44.1623 21.4041C44.1623 19.4649 45.7172 18.6612 47.0973 18.6612C48.2329 18.6612 49.2112 19.0281 49.8227 19.7444V18.4865C49.8227 17.5082 49.019 16.9142 47.8485 16.9142C47.1323 16.9142 46.5033 17.1064 45.8743 17.5431C45.7696 17.613 45.6123 17.6654 45.4551 17.6654C45.0532 17.6654 44.7213 17.3335 44.7213 16.9316C44.7213 16.687 44.861 16.4599 45.0358 16.3376C45.9617 15.6563 47.01 15.3418 48.1455 15.3418ZM47.8136 19.9191C46.7828 19.9191 46.0141 20.5131 46.0141 21.4391C46.0141 22.3476 46.7828 22.9415 47.8136 22.9415C48.6173 22.9415 49.4034 22.6445 49.8227 22.068V20.7927C49.4034 20.2161 48.6173 19.9191 47.8136 19.9191ZM54.9416 13.9092C54.3301 13.9092 53.806 13.4025 53.806 12.7737C53.806 12.1447 54.3301 11.638 54.9416 11.638C55.5705 11.638 56.0772 12.1447 56.0772 12.7737C56.0772 13.4025 55.5705 13.9092 54.9416 13.9092ZM54.9416 24.0947C54.4524 24.0947 54.0331 23.6753 54.0331 23.1687V16.3725C54.0331 15.866 54.4524 15.4466 54.9591 15.4466C55.4482 15.4466 55.8676 15.866 55.8676 16.3725V23.1687C55.8676 23.6753 55.4482 24.0947 54.9416 24.0947ZM59.1695 24.0947C58.6628 24.0947 58.2436 23.6753 58.2436 23.1687V13.1579C58.2436 12.6514 58.6628 12.232 59.1695 12.232C59.6587 12.232 60.078 12.6514 60.078 13.1579V23.1687C60.078 23.6753 59.6587 24.0947 59.1695 24.0947ZM66.2102 15.3418C68.7434 15.3418 70.3682 17.2811 70.3682 19.5173C70.3682 20.0589 69.9838 20.3734 69.2851 20.3734H63.8517C63.9914 21.6487 64.9523 22.6969 66.5421 22.6969C67.1536 22.6969 67.8699 22.5048 68.4639 22.1379C68.5687 22.068 68.7085 22.0331 68.8657 22.0331C69.2676 22.0331 69.5996 22.365 69.5996 22.7668C69.5996 23.0289 69.4598 23.2385 69.2676 23.3783C68.429 23.9374 67.4157 24.1994 66.35 24.1994C63.8167 24.1994 61.9299 22.4349 61.9299 19.7619C61.9299 17.316 63.7119 15.3418 66.2102 15.3418ZM66.2102 16.8443C64.6379 16.8443 63.9215 18.0497 63.8342 19.0806H68.5862C68.5513 18.0847 67.8699 16.8443 66.2102 16.8443ZM76.1335 15.4117C76.6577 15.4117 76.8848 15.8135 76.8848 16.2677C76.8848 16.687 76.5703 17.0539 75.9414 17.1413C75.3124 17.2287 74.3865 17.648 74.0196 18.2419V23.1687C74.0196 23.6753 73.6003 24.0947 73.1111 24.0947C72.6045 24.0947 72.1852 23.6753 72.1852 23.1687V16.3725C72.1852 15.866 72.6045 15.4466 73.0936 15.4466C73.6003 15.4466 74.0196 15.866 74.0196 16.3725V16.7919C74.4739 16.1979 75.1028 15.6912 75.6444 15.5165C75.854 15.4466 75.9763 15.4117 76.1335 15.4117Z" fill="#A8A8A8"/>
</g>
<defs>
<clipPath id="clip0">
<rect width="122.549" height="33.1215" fill="white" transform="translate(0.21283 0.459473)"/>
</clipPath>
</defs>
</svg>
