<svg width="77" height="40" viewBox="0 0 77 40" fill="none" xmlns="http://www.w3.org/2000/svg">
<path fill-rule="evenodd" clip-rule="evenodd" d="M12 10C14.7614 10 17 7.76142 17 5C17 2.23858 14.7614 0 12 0C9.23858 0 7 2.23858 7 5C7 7.76142 9.23858 10 12 10ZM12 7.5C13.3807 7.5 14.5 6.38071 14.5 5C14.5 3.61929 13.3807 2.5 12 2.5C10.6193 2.5 9.5 3.61929 9.5 5C9.5 6.38071 10.6193 7.5 12 7.5ZM27 10C29.7614 10 32 7.76142 32 5C32 2.23858 29.7614 0 27 0C24.2386 0 22 2.23858 22 5C22 7.76142 24.2386 10 27 10ZM27 7.5C28.3807 7.5 29.5 6.38071 29.5 5C29.5 3.61929 28.3807 2.5 27 2.5C25.6193 2.5 24.5 3.61929 24.5 5C24.5 6.38071 25.6193 7.5 27 7.5ZM42 10C44.7614 10 47 7.76142 47 5C47 2.23858 44.7614 0 42 0C39.2386 0 37 2.23858 37 5C37 7.76142 39.2386 10 42 10ZM42 7.5C43.3807 7.5 44.5 6.38071 44.5 5C44.5 3.61929 43.3807 2.5 42 2.5C40.6193 2.5 39.5 3.61929 39.5 5C39.5 6.38071 40.6193 7.5 42 7.5ZM57 10C59.7614 10 62 7.76142 62 5C62 2.23858 59.7614 0 57 0C54.2386 0 52 2.23858 52 5C52 7.76142 54.2386 10 57 10ZM57 7.5C58.3807 7.5 59.5 6.38071 59.5 5C59.5 3.61929 58.3807 2.5 57 2.5C55.6193 2.5 54.5 3.61929 54.5 5C54.5 6.38071 55.6193 7.5 57 7.5ZM72 10C74.7614 10 77 7.76142 77 5C77 2.23858 74.7614 0 72 0C69.2386 0 67 2.23858 67 5C67 7.76142 69.2386 10 72 10ZM72 7.5C73.3807 7.5 74.5 6.38071 74.5 5C74.5 3.61929 73.3807 2.5 72 2.5C70.6193 2.5 69.5 3.61929 69.5 5C69.5 6.38071 70.6193 7.5 72 7.5ZM5 25C7.76142 25 10 22.7614 10 20C10 17.2386 7.76142 15 5 15C2.23858 15 0 17.2386 0 20C0 22.7614 2.23858 25 5 25ZM5 22.5C6.38071 22.5 7.5 21.3807 7.5 20C7.5 18.6193 6.38071 17.5 5 17.5C3.61929 17.5 2.5 18.6193 2.5 20C2.5 21.3807 3.61929 22.5 5 22.5ZM20 25C22.7614 25 25 22.7614 25 20C25 17.2386 22.7614 15 20 15C17.2386 15 15 17.2386 15 20C15 22.7614 17.2386 25 20 25ZM20 22.5C21.3807 22.5 22.5 21.3807 22.5 20C22.5 18.6193 21.3807 17.5 20 17.5C18.6193 17.5 17.5 18.6193 17.5 20C17.5 21.3807 18.6193 22.5 20 22.5ZM35 25C37.7614 25 40 22.7614 40 20C40 17.2386 37.7614 15 35 15C32.2386 15 30 17.2386 30 20C30 22.7614 32.2386 25 35 25ZM35 22.5C36.3807 22.5 37.5 21.3807 37.5 20C37.5 18.6193 36.3807 17.5 35 17.5C33.6193 17.5 32.5 18.6193 32.5 20C32.5 21.3807 33.6193 22.5 35 22.5ZM50 25C52.7614 25 55 22.7614 55 20C55 17.2386 52.7614 15 50 15C47.2386 15 45 17.2386 45 20C45 22.7614 47.2386 25 50 25ZM50 22.5C51.3807 22.5 52.5 21.3807 52.5 20C52.5 18.6193 51.3807 17.5 50 17.5C48.6193 17.5 47.5 18.6193 47.5 20C47.5 21.3807 48.6193 22.5 50 22.5ZM65 25C67.7614 25 70 22.7614 70 20C70 17.2386 67.7614 15 65 15C62.2386 15 60 17.2386 60 20C60 22.7614 62.2386 25 65 25ZM65 22.5C66.3807 22.5 67.5 21.3807 67.5 20C67.5 18.6193 66.3807 17.5 65 17.5C63.6193 17.5 62.5 18.6193 62.5 20C62.5 21.3807 63.6193 22.5 65 22.5ZM12 40C14.7614 40 17 37.7614 17 35C17 32.2386 14.7614 30 12 30C9.23858 30 7 32.2386 7 35C7 37.7614 9.23858 40 12 40ZM12 37.5C13.3807 37.5 14.5 36.3807 14.5 35C14.5 33.6193 13.3807 32.5 12 32.5C10.6193 32.5 9.5 33.6193 9.5 35C9.5 36.3807 10.6193 37.5 12 37.5ZM27 40C29.7614 40 32 37.7614 32 35C32 32.2386 29.7614 30 27 30C24.2386 30 22 32.2386 22 35C22 37.7614 24.2386 40 27 40ZM27 37.5C28.3807 37.5 29.5 36.3807 29.5 35C29.5 33.6193 28.3807 32.5 27 32.5C25.6193 32.5 24.5 33.6193 24.5 35C24.5 36.3807 25.6193 37.5 27 37.5ZM42 40C44.7614 40 47 37.7614 47 35C47 32.2386 44.7614 30 42 30C39.2386 30 37 32.2386 37 35C37 37.7614 39.2386 40 42 40ZM42 37.5C43.3807 37.5 44.5 36.3807 44.5 35C44.5 33.6193 43.3807 32.5 42 32.5C40.6193 32.5 39.5 33.6193 39.5 35C39.5 36.3807 40.6193 37.5 42 37.5ZM57 40C59.7614 40 62 37.7614 62 35C62 32.2386 59.7614 30 57 30C54.2386 30 52 32.2386 52 35C52 37.7614 54.2386 40 57 40ZM57 37.5C58.3807 37.5 59.5 36.3807 59.5 35C59.5 33.6193 58.3807 32.5 57 32.5C55.6193 32.5 54.5 33.6193 54.5 35C54.5 36.3807 55.6193 37.5 57 37.5ZM72 40C74.7614 40 77 37.7614 77 35C77 32.2386 74.7614 30 72 30C69.2386 30 67 32.2386 67 35C67 37.7614 69.2386 40 72 40ZM72 37.5C73.3807 37.5 74.5 36.3807 74.5 35C74.5 33.6193 73.3807 32.5 72 32.5C70.6193 32.5 69.5 33.6193 69.5 35C69.5 36.3807 70.6193 37.5 72 37.5Z" fill="#FFC971"/>
</svg>
