<svg width="197" height="38" viewBox="0 0 197 38" fill="none" xmlns="http://www.w3.org/2000/svg">
<path d="M17.9268 0.0751953C27.6453 0.0751953 35.5236 7.95539 35.5236 17.676C35.5236 27.3967 27.6453 35.2769 17.9268 35.2769C8.20843 35.2769 0.330078 27.3967 0.330078 17.676C0.330078 8.05256 8.05164 0.232982 17.6359 0.0775533L17.9268 0.0751953ZM17.9268 25.3764C16.6747 25.3764 15.4465 25.5265 14.2628 25.8153L14.3376 26.1877C15.2337 30.4801 16.7429 33.0768 17.9268 33.0768C19.2907 33.0768 20.7366 30.1757 21.584 25.8144C20.3978 25.5242 19.1727 25.3764 17.9268 25.3764ZM33.2853 18.7763L24.5143 18.7765C24.393 24.6398 23.3038 29.728 21.5417 32.6498C27.8848 31.1234 32.6985 25.6695 33.2676 19.004L33.2853 18.7763ZM12.1551 26.4957L12.0452 26.5395C10.4785 27.1872 9.02533 28.0931 7.74253 29.2261C9.58577 30.8539 11.8209 32.0463 14.2882 32.6442C13.3896 31.1319 12.6705 29.0292 12.1551 26.4957ZM2.56836 18.7763C2.80665 22.1528 4.13313 25.2288 6.19914 27.6555C9.39392 24.7951 13.5336 23.1763 17.9268 23.1763C19.2911 23.1763 20.635 23.3318 21.9394 23.6362C22.1413 22.1244 22.2733 20.4892 22.3132 18.7766L2.56836 18.7763ZM14.312 2.7023L14.2267 2.72289C7.85378 4.29532 3.04367 9.83728 2.56833 16.5764L11.3394 16.5761C11.4606 10.7126 12.5498 5.6242 14.312 2.7023ZM29.655 7.69717L29.457 7.87134C26.2848 10.6264 22.2257 12.1758 17.9268 12.1758C16.5629 12.1758 15.219 12.0204 13.9142 11.7159C13.7124 13.2274 13.5804 14.863 13.5405 16.576L33.2854 16.5764C33.0542 13.2991 31.798 10.3051 29.8354 7.91292L29.655 7.69717ZM17.9268 2.2753C16.5629 2.2753 15.117 5.1766 14.2697 9.53821C15.4562 9.82797 16.6813 9.97567 17.9268 9.97567C19.179 9.97567 20.4073 9.82569 21.5914 9.53682L21.5084 9.12775C20.6112 4.85582 19.1065 2.2753 17.9268 2.2753ZM21.5649 2.70772L21.6444 2.84441C22.5066 4.34553 23.1984 6.39841 23.6987 8.85706C25.3063 8.20744 26.7974 7.28597 28.1116 6.12535C26.2682 4.49829 24.0327 3.30567 21.5649 2.70772Z" fill="#838383"/>
<path d="M54.5981 10.1772L57.1026 1.43115H55.8831L53.9556 8.72175L51.9494 1.43115H51.0446L49.0384 8.72175L47.0977 1.43115H45.8913L48.3827 10.1772H49.5629L51.4904 3.12267L53.418 10.1772H54.5981ZM60.6138 10.3346C61.6366 10.3346 62.4889 9.98056 63.1314 9.35115L62.6594 8.70864C62.148 9.23314 61.4268 9.52162 60.6925 9.52162C59.3288 9.52162 58.5027 8.52506 58.424 7.33181H63.5379V7.08267C63.5379 5.18135 62.4102 3.68651 60.4958 3.68651C58.6863 3.68651 57.375 5.16824 57.375 7.004C57.375 8.984 58.7256 10.3346 60.6138 10.3346ZM62.5676 6.59751H58.4109C58.4633 5.64029 59.1321 4.49949 60.4827 4.49949C61.9251 4.49949 62.5545 5.66651 62.5676 6.59751ZM73.4676 10.1772V5.82387C73.4676 4.28969 72.3662 3.68651 71.0156 3.68651C69.9797 3.68651 69.1667 4.02744 68.4848 4.73552L68.9438 5.41738C69.5076 4.80108 70.1239 4.53883 70.8845 4.53883C71.8023 4.53883 72.4842 5.024 72.4842 5.8632V7.004C71.9728 6.42704 71.2516 6.15168 70.3862 6.15168C69.3109 6.15168 68.1833 6.80731 68.1833 8.23658C68.1833 9.6134 69.3241 10.3346 70.3862 10.3346C71.2385 10.3346 71.9728 10.033 72.4842 9.45605V10.1772H73.4676ZM70.7533 9.62652C69.8223 9.62652 69.1798 9.04956 69.1798 8.23658C69.1798 7.43671 69.8223 6.85976 70.7533 6.85976C71.4352 6.85976 72.1039 7.12201 72.4842 7.6334V8.83976C72.1039 9.36427 71.4352 9.62652 70.7533 9.62652ZM76.4353 10.1772V5.69274C76.7238 5.18135 77.5498 4.68307 78.1661 4.68307C78.3104 4.68307 78.4284 4.69618 78.5464 4.7093V3.69963C77.681 3.69963 76.9467 4.1979 76.4353 4.85353V3.84386H75.4518V10.1772H76.4353ZM82.6517 10.3346C83.6744 10.3346 84.5268 9.98056 85.1693 9.35115L84.6972 8.70864C84.1858 9.23314 83.4646 9.52162 82.7303 9.52162C81.3666 9.52162 80.5405 8.52506 80.4619 7.33181H85.5758V7.08267C85.5758 5.18135 84.4481 3.68651 82.5337 3.68651C80.7241 3.68651 79.4129 5.16824 79.4129 7.004C79.4129 8.984 80.7635 10.3346 82.6517 10.3346ZM84.6054 6.59751H80.4488C80.5012 5.64029 81.1699 4.49949 82.5205 4.49949C83.9629 4.49949 84.5923 5.66651 84.6054 6.59751ZM93.6828 10.3346C95.3481 10.3346 96.502 9.04956 96.502 7.004C96.502 4.94532 95.3481 3.68651 93.6828 3.68651C92.7912 3.68651 92.0044 4.14545 91.5455 4.78797V3.84386H90.562V12.59H91.5455V9.22003C92.07 9.91499 92.8174 10.3346 93.6828 10.3346ZM93.4337 9.45605C92.6601 9.45605 91.8864 8.984 91.5455 8.43327V5.57473C91.8864 5.024 92.6601 4.56506 93.4337 4.56506C94.7056 4.56506 95.4662 5.60095 95.4662 7.004C95.4662 8.40705 94.7056 9.45605 93.4337 9.45605ZM103.009 10.1772V5.82387C103.009 4.28969 101.908 3.68651 100.557 3.68651C99.5214 3.68651 98.7084 4.02744 98.0266 4.73552L98.4855 5.41738C99.0494 4.80108 99.6657 4.53883 100.426 4.53883C101.344 4.53883 102.026 5.024 102.026 5.8632V7.004C101.515 6.42704 100.793 6.15168 99.9279 6.15168C98.8527 6.15168 97.725 6.80731 97.725 8.23658C97.725 9.6134 98.8658 10.3346 99.9279 10.3346C100.78 10.3346 101.515 10.033 102.026 9.45605V10.1772H103.009ZM100.295 9.62652C99.3641 9.62652 98.7216 9.04956 98.7216 8.23658C98.7216 7.43671 99.3641 6.85976 100.295 6.85976C100.977 6.85976 101.646 7.12201 102.026 7.6334V8.83976C101.646 9.36427 100.977 9.62652 100.295 9.62652ZM105.977 10.1772V5.69274C106.265 5.18135 107.092 4.68307 107.708 4.68307C107.852 4.68307 107.97 4.69618 108.088 4.7093V3.69963C107.223 3.69963 106.488 4.1979 105.977 4.85353V3.84386H104.994V10.1772H105.977ZM110.935 10.3346C111.498 10.3346 111.852 10.1641 112.102 9.92811L111.813 9.18069C111.682 9.32493 111.433 9.45605 111.144 9.45605C110.725 9.45605 110.515 9.11513 110.515 8.64307V4.7093H111.8V3.84386H110.515V2.113H109.518V3.84386H108.469V4.7093H109.518V8.85287C109.518 9.79698 109.99 10.3346 110.935 10.3346ZM119.336 10.3346C121.264 10.3346 122.47 8.83976 122.47 7.004C122.47 5.16824 121.264 3.68651 119.336 3.68651C117.409 3.68651 116.202 5.16824 116.202 7.004C116.202 8.83976 117.409 10.3346 119.336 10.3346ZM119.336 9.45605C117.986 9.45605 117.238 8.30215 117.238 7.004C117.238 5.71897 117.986 4.56506 119.336 4.56506C120.687 4.56506 121.434 5.71897 121.434 7.004C121.434 8.30215 120.687 9.45605 119.336 9.45605ZM125.332 10.1772V4.7093H126.617V3.84386H125.332V3.3587C125.332 2.54572 125.686 2.113 126.342 2.113C126.657 2.113 126.906 2.23102 127.116 2.41459L127.522 1.78519C127.129 1.41803 126.696 1.30002 126.185 1.30002C125.07 1.30002 124.349 2.06055 124.349 3.3587V3.84386H123.3V4.7093H124.349V10.1772H125.332Z" fill="#838383"/>
<path d="M50.7473 34.2637V25.0966H54.0246V23.9527H46.2024V25.0966H49.4643V34.2637H50.7473ZM61.898 34.2637V28.9922C61.898 27.369 61.0786 26.6116 59.5173 26.6116C58.3888 26.6116 57.3685 27.2454 56.8584 27.8792V23.9527H55.699V34.2637H56.8584V28.8067C57.2912 28.2038 58.1569 27.6473 59.0535 27.6473C60.0738 27.6473 60.7385 28.0183 60.7385 29.3478V34.2637H61.898ZM67.5985 34.4492C68.8043 34.4492 69.8091 34.0318 70.5666 33.2898L70.0101 32.5323C69.4072 33.1506 68.557 33.4907 67.6913 33.4907C66.0835 33.4907 65.1096 32.3159 65.0169 30.9091H71.0458V30.6154C71.0458 28.3739 69.7164 26.6116 67.4594 26.6116C65.3261 26.6116 63.7802 28.3584 63.7802 30.5226C63.7802 32.8569 65.3724 34.4492 67.5985 34.4492ZM69.9019 30.0434H65.0014C65.0633 28.9149 65.8517 27.57 67.4439 27.57C69.1444 27.57 69.8864 28.9458 69.9019 30.0434ZM84.4527 34.2637L81.6701 30.0589C83.0769 29.9352 84.3599 28.9149 84.3599 27.0599C84.3599 25.1584 82.9996 23.9527 81.1136 23.9527H76.9706V34.2637H78.2537V30.1671H80.3252L82.9377 34.2637H84.4527ZM80.959 29.0386H78.2537V25.0966H80.959C82.1803 25.0966 83.0305 25.885 83.0305 27.0599C83.0305 28.2193 82.1803 29.0386 80.959 29.0386ZM89.262 34.4492C90.4677 34.4492 91.4726 34.0318 92.23 33.2898L91.6735 32.5323C91.0706 33.1506 90.2204 33.4907 89.3547 33.4907C87.747 33.4907 86.7731 32.3159 86.6803 30.9091H92.7093V30.6154C92.7093 28.3739 91.3798 26.6116 89.1228 26.6116C86.9895 26.6116 85.4436 28.3584 85.4436 30.5226C85.4436 32.8569 87.0359 34.4492 89.262 34.4492ZM91.5653 30.0434H86.6649C86.7267 28.9149 87.5151 27.57 89.1074 27.57C90.8078 27.57 91.5499 28.9458 91.5653 30.0434ZM104.759 34.2637V28.8686C104.759 27.369 104.032 26.6116 102.672 26.6116C101.59 26.6116 100.585 27.3227 100.168 28.0029C99.9514 27.2299 99.3021 26.6116 98.1736 26.6116C97.0606 26.6116 96.0712 27.4 95.7466 27.8792V26.7971H94.5872V34.2637H95.7466V28.8067C96.1485 28.2038 96.9523 27.6473 97.7098 27.6473C98.6992 27.6473 99.0857 28.2502 99.0857 29.1932V34.2637H100.245V28.7913C100.632 28.1884 101.451 27.6473 102.224 27.6473C103.198 27.6473 103.6 28.2502 103.6 29.1932V34.2637H104.759ZM110.334 34.4492C112.606 34.4492 114.028 32.6869 114.028 30.5226C114.028 28.3584 112.606 26.6116 110.334 26.6116C108.061 26.6116 106.639 28.3584 106.639 30.5226C106.639 32.6869 108.061 34.4492 110.334 34.4492ZM110.334 33.4134C108.741 33.4134 107.86 32.0531 107.86 30.5226C107.86 29.0077 108.741 27.6473 110.334 27.6473C111.926 27.6473 112.807 29.0077 112.807 30.5226C112.807 32.0531 111.926 33.4134 110.334 33.4134ZM117.82 34.4492C118.485 34.4492 118.902 34.2482 119.196 33.97L118.856 33.0888C118.701 33.2589 118.407 33.4134 118.067 33.4134C117.573 33.4134 117.325 33.0115 117.325 32.455V27.8174H118.84V26.7971H117.325V24.7565H116.15V26.7971H114.914V27.8174H116.15V32.7023C116.15 33.8154 116.707 34.4492 117.82 34.4492ZM123.848 34.4492C125.054 34.4492 126.059 34.0318 126.816 33.2898L126.26 32.5323C125.657 33.1506 124.806 33.4907 123.941 33.4907C122.333 33.4907 121.359 32.3159 121.266 30.9091H127.295V30.6154C127.295 28.3739 125.966 26.6116 123.709 26.6116C121.576 26.6116 120.03 28.3584 120.03 30.5226C120.03 32.8569 121.622 34.4492 123.848 34.4492ZM126.151 30.0434H121.251C121.313 28.9149 122.101 27.57 123.693 27.57C125.394 27.57 126.136 28.9458 126.151 30.0434ZM138.105 34.4492C139.929 34.4492 141.166 33.5835 142.032 32.3932L140.95 31.8057C140.362 32.6714 139.28 33.3052 138.105 33.3052C135.848 33.3052 134.132 31.5584 134.132 29.1159C134.132 26.6425 135.848 24.9266 138.105 24.9266C139.28 24.9266 140.362 25.5449 140.95 26.4261L142.016 25.8232C141.197 24.6483 139.929 23.7826 138.105 23.7826C135.137 23.7826 132.803 25.9468 132.803 29.1159C132.803 32.2849 135.137 34.4492 138.105 34.4492ZM146.882 34.4492C149.155 34.4492 150.577 32.6869 150.577 30.5226C150.577 28.3584 149.155 26.6116 146.882 26.6116C144.61 26.6116 143.188 28.3584 143.188 30.5226C143.188 32.6869 144.61 34.4492 146.882 34.4492ZM146.882 33.4134C145.29 33.4134 144.409 32.0531 144.409 30.5226C144.409 29.0077 145.29 27.6473 146.882 27.6473C148.475 27.6473 149.356 29.0077 149.356 30.5226C149.356 32.0531 148.475 33.4134 146.882 33.4134ZM162.639 34.2637V28.8686C162.639 27.369 161.912 26.6116 160.552 26.6116C159.47 26.6116 158.465 27.3227 158.048 28.0029C157.831 27.2299 157.182 26.6116 156.053 26.6116C154.94 26.6116 153.951 27.4 153.626 27.8792V26.7971H152.467V34.2637H153.626V28.8067C154.028 28.2038 154.832 27.6473 155.59 27.6473C156.579 27.6473 156.966 28.2502 156.966 29.1932V34.2637H158.125V28.7913C158.511 28.1884 159.331 27.6473 160.104 27.6473C161.078 27.6473 161.48 28.2502 161.48 29.1932V34.2637H162.639ZM168.631 34.4492C170.594 34.4492 171.955 32.9342 171.955 30.5226C171.955 28.0956 170.594 26.6116 168.631 26.6116C167.58 26.6116 166.652 27.1526 166.111 27.9101V26.7971H164.952V37.1081H166.111V33.1352C166.73 33.9545 167.611 34.4492 168.631 34.4492ZM168.337 33.4134C167.425 33.4134 166.513 32.8569 166.111 32.2077V28.8376C166.513 28.1884 167.425 27.6473 168.337 27.6473C169.837 27.6473 170.733 28.8686 170.733 30.5226C170.733 32.1767 169.837 33.4134 168.337 33.4134ZM179.626 34.2637V29.1314C179.626 27.3227 178.328 26.6116 176.736 26.6116C175.514 26.6116 174.556 27.0135 173.752 27.8483L174.293 28.6521C174.958 27.9256 175.684 27.6164 176.581 27.6164C177.663 27.6164 178.467 28.1884 178.467 29.1777V30.5226C177.864 29.8425 177.014 29.5178 175.994 29.5178C174.726 29.5178 173.396 30.2908 173.396 31.9758C173.396 33.5989 174.741 34.4492 175.994 34.4492C176.998 34.4492 177.864 34.0936 178.467 33.4134V34.2637H179.626ZM176.426 33.6144C175.329 33.6144 174.571 32.9342 174.571 31.9758C174.571 31.0328 175.329 30.3526 176.426 30.3526C177.23 30.3526 178.019 30.6618 178.467 31.2647V32.6869C178.019 33.3052 177.23 33.6144 176.426 33.6144ZM188.165 34.2637V29.0231C188.165 27.4 187.345 26.6116 185.799 26.6116C184.671 26.6116 183.651 27.2454 183.125 27.8792V26.7971H181.966V34.2637H183.125V28.8067C183.573 28.2038 184.424 27.6473 185.336 27.6473C186.34 27.6473 187.021 28.0492 187.021 29.3787V34.2637H188.165ZM190.093 37.1854C190.294 37.2472 190.681 37.2936 190.928 37.2936C191.917 37.2781 192.675 36.8607 193.123 35.7786L196.864 26.7971H195.612L193.123 32.9188L190.65 26.7971H189.382L192.505 34.341L192.01 35.4695C191.747 36.0878 191.407 36.2579 190.897 36.2579C190.712 36.2579 190.433 36.2115 190.263 36.1342L190.093 37.1854Z" fill="#838383"/>
</svg>
