<svg width="68" height="68" viewBox="0 0 68 68" fill="none" xmlns="http://www.w3.org/2000/svg">
<path d="M34.0892 0.480957L35.2217 3.96661H38.8867L35.9217 6.12085L37.0542 9.6065L34.0892 7.45225L31.1241 9.6065L32.2566 6.12085L29.2916 3.96661H32.9566L34.0892 0.480957Z" fill="#FFCC00"/>
<path d="M48.4045 5.52533L49.537 9.01098H53.202L50.237 11.1652L51.3695 14.6509L48.4045 12.4966L45.4394 14.6509L46.5719 11.1652L43.6069 9.01098H47.2719L48.4045 5.52533Z" fill="#FFCC00"/>
<path d="M59.8049 14.7606L60.9374 18.2463H64.6024L61.6374 20.4005L62.7699 23.8862L59.8049 21.7319L56.8398 23.8862L57.9723 20.4005L55.0073 18.2463H58.6723L59.8049 14.7606Z" fill="#FFCC00"/>
<path d="M62.5348 29.2234L63.6674 32.709H67.3324L64.3673 34.8633L65.4999 38.3489L62.5348 36.1947L59.5698 38.3489L60.7023 34.8633L57.7373 32.709H61.4023L62.5348 29.2234Z" fill="#FFCC00"/>
<path d="M59.8049 43.6861L60.9374 47.1717H64.6024L61.6374 49.326L62.7699 52.8116L59.8049 50.6574L56.8398 52.8116L57.9723 49.326L55.0073 47.1717H58.6723L59.8049 43.6861Z" fill="#FFCC00"/>
<path d="M50.929 55.3524L52.0616 58.838H55.7266L52.7615 60.9923L53.8941 64.4779L50.929 62.3237L47.9639 64.4779L49.0965 60.9923L46.1314 58.838H49.7964L50.929 55.3524Z" fill="#FFCC00"/>
<path d="M34.0892 57.7612L35.2217 61.2468H38.8867L35.9217 63.4011L37.0542 66.8867L34.0892 64.7325L31.1241 66.8867L32.2566 63.4011L29.2916 61.2468H32.9566L34.0892 57.7612Z" fill="#FFCC00"/>
<path d="M17.2492 55.3524L18.3817 58.838H22.0468L19.0817 60.9923L20.2143 64.4779L17.2492 62.3237L14.2841 64.4779L15.4167 60.9923L12.4516 58.838H16.1166L17.2492 55.3524Z" fill="#FFCC00"/>
<path d="M7.99895 43.264L9.1315 46.7497H12.7965L9.83146 48.9039L10.964 52.3896L7.99895 50.2353L5.03388 52.3896L6.16643 48.9039L3.20136 46.7497H6.86639L7.99895 43.264Z" fill="#FFCC00"/>
<path d="M5.50883 29.2234L6.64139 32.709H10.3064L7.34135 34.8633L8.4739 38.3489L5.50883 36.1947L2.54376 38.3489L3.67632 34.8633L0.71125 32.709H4.37628L5.50883 29.2234Z" fill="#FFCC00"/>
<path d="M9.25297 14.7606L10.3855 18.2463H14.0506L11.0855 20.4005L12.218 23.8862L9.25297 21.7319L6.2879 23.8862L7.42046 20.4005L4.45539 18.2463H8.12042L9.25297 14.7606Z" fill="#FFCC00"/>
<path d="M19.8666 5.52533L20.9992 9.01098H24.6642L21.6991 11.1652L22.8317 14.6509L19.8666 12.4966L16.9016 14.6509L18.0341 11.1652L15.069 9.01098H18.7341L19.8666 5.52533Z" fill="#FFCC00"/>
<path d="M35.2129 22.5994C32.2187 22.5994 29.7828 25.0353 29.7828 28.0294V31.2875H28.6968C27.4989 31.2875 26.5248 32.2616 26.5248 33.4595V42.1476C26.5248 43.3454 27.4989 44.3196 28.6968 44.3196H41.7289C42.9268 44.3196 43.901 43.3454 43.901 42.1476V33.4595C43.901 32.2616 42.9268 31.2875 41.7289 31.2875H40.6429V28.0294C40.6429 25.0353 38.207 22.5994 35.2129 22.5994ZM41.7289 33.4595L41.7311 42.1476H28.6968V33.4595H41.7289ZM31.9548 31.2875V28.0294C31.9548 26.2332 33.4166 24.7714 35.2129 24.7714C37.0091 24.7714 38.4709 26.2332 38.4709 28.0294V31.2875H31.9548Z" fill="white"/>
</svg>
